<svg width="80" height="79" viewBox="0 0 80 79" fill="none" xmlns="http://www.w3.org/2000/svg">
<path d="M73.5755 13.4385C69.995 13.4385 67.099 16.3638 67.099 19.9805C67.099 21.257 67.4676 22.4448 68.0819 23.4553L56.4453 34.0218L54.6375 12.6584C57.0772 11.7188 58.8147 9.34313 58.8147 6.54196C58.8147 2.92527 55.9188 0 52.3383 0C48.7578 0 45.8618 2.92527 45.8618 6.54196C45.8618 8.72262 46.9324 10.6551 48.5472 11.8429L40.456 31.0433L31.9962 11.8784C33.646 10.6905 34.7167 8.75808 34.7167 6.55969C34.7167 2.943 31.8207 0.01773 28.2402 0.01773C24.6597 0.01773 21.7637 2.943 21.7637 6.55969C21.7637 9.62679 23.8524 12.1975 26.6606 12.9066L25.3969 33.9509L12.1982 23.1008C12.6897 22.1789 12.9529 21.1329 12.9529 20.0337C12.9529 16.417 10.057 13.4917 6.47647 13.4917C2.89598 13.4917 0 16.417 0 20.0337C0 23.6504 2.89598 26.5756 6.47647 26.5756C6.88015 26.5756 7.26628 26.5402 7.65241 26.4693C12.0929 36.4684 18.7098 46.4675 23.045 56.4666L23.0274 61.3243H22.8519L13.0758 71.2525V79H66.9235V71.5539L56.849 61.3243L56.9367 56.4666L73.0665 26.5579C73.2244 26.5756 73.3649 26.5756 73.5228 26.5756C77.1033 26.5756 79.9993 23.6504 79.9993 20.0337C80.0519 16.3638 77.156 13.4385 73.5755 13.4385Z" fill="white"/>
</svg>
