<svg width="187" height="215" viewBox="0 0 187 215" fill="none" xmlns="http://www.w3.org/2000/svg">
<path d="M93.1072 52.9937C97.9806 42.4424 102.807 31.8912 107.68 21.34C108.532 19.8732 109.478 17.6494 109.478 14.9524C109.384 7.80789 102.286 0.142869 93.4857 0.000923737C84.8744 -0.0937061 77.9664 7.09817 77.1147 14.2427C76.7362 17.2709 77.5406 19.7786 78.203 21.34C83.1711 31.8912 88.1391 42.4424 93.1072 52.9937Z" fill="#222831"/>
<path d="M180.497 111.996C181.444 109.724 192.61 86.0196 180.497 65.4376C179.93 64.444 167.249 43.7201 142.456 41.6382C122.868 39.9822 103.658 50.5808 93.3905 68.6551C84.6845 51.1012 66.4683 40.3134 47.1638 41.2597C26.014 42.3006 9.45378 57.2048 3.44478 74.664C-2.65884 92.4072 3.8233 108.021 5.57395 111.996C17.3081 126.095 29.0422 140.668 40.7763 154.768L47.7316 167.827L21.3771 194.324V215H166.539V195.128L139.381 167.827L146.052 155.383C158.449 139.959 168.053 127.42 180.497 111.996ZM116.149 110.529C119.13 104.141 122.868 95.0568 129.586 92.5018C129.728 92.4545 131.574 92.3125 132.567 93.6847C134.744 96.6655 132.662 102.864 130.06 107.359C128.924 109.346 128.12 110.765 126.511 114.361C125.091 117.531 124.618 117.626 123.672 122.31C122.726 126.994 121.874 127.657 120.833 130.07C119.65 132.719 118.467 134.375 116.527 134.754C115.345 134.991 114.067 134.659 113.641 133.855C110.518 127.751 112.458 118.478 116.149 110.529ZM54.6869 93.6847C55.6805 92.3125 57.5258 92.4545 57.6677 92.5018C64.3864 95.0568 68.1716 104.141 71.1051 110.529C74.7957 118.478 76.7356 127.704 73.5655 133.855C73.1397 134.659 71.8622 134.991 70.6793 134.754C68.7394 134.328 67.5565 132.719 66.3736 130.07C65.3327 127.657 64.481 126.994 63.5347 122.31C62.5884 117.626 62.1153 117.531 60.6959 114.361C59.0871 110.765 58.2828 109.346 57.1472 107.359C54.5922 102.864 52.5104 96.6655 54.6869 93.6847Z" fill="#222831"/>
</svg>
