<svg width="218" height="215" viewBox="0 0 218 215" fill="none" xmlns="http://www.w3.org/2000/svg">
<path d="M200.493 36.5732C190.736 36.5732 182.845 44.5343 182.845 54.3773C182.845 57.8512 183.849 61.0839 185.523 63.8342L153.813 92.5909L148.887 34.4502C155.535 31.893 160.27 25.4275 160.27 17.8041C160.27 7.96117 152.379 0 142.622 0C132.865 0 124.973 7.96117 124.973 17.8041C124.973 23.7388 127.891 28.998 132.291 32.2307L110.243 84.485L87.1897 32.3272C91.6855 29.0945 94.6029 23.8353 94.6029 17.8523C94.6029 8.00943 86.7114 0.0482525 76.9546 0.0482525C67.1977 0.0482525 59.3062 8.00943 59.3062 17.8523C59.3062 26.1995 64.9977 33.1957 72.6501 35.1257L69.2065 92.3979L33.2402 62.8692C34.5793 60.3602 35.2968 57.5135 35.2968 54.522C35.2968 44.6791 27.4052 36.7179 17.6484 36.7179C7.89155 36.7179 0 44.6791 0 54.522C0 64.3649 7.89155 72.3261 17.6484 72.3261C18.7484 72.3261 19.8006 72.2296 20.8528 72.0366C32.9532 99.2493 50.9842 126.462 62.7976 153.675L62.7498 166.895H62.2715L35.6315 193.915V215H182.367V194.735L154.913 166.895L155.153 153.675L199.106 72.2778C199.537 72.3261 199.919 72.3261 200.35 72.3261C210.107 72.3261 217.998 64.3649 217.998 54.522C218.142 44.5343 210.25 36.5732 200.493 36.5732Z" fill="#222831"/>
</svg>
