<svg width="183" height="213" viewBox="0 0 183 213" fill="none" xmlns="http://www.w3.org/2000/svg">
<path d="M91.112 52.3533C95.9265 41.9296 100.694 31.5058 105.509 21.0821C106.35 19.6331 107.285 17.4361 107.285 14.7718C107.192 7.71354 100.18 0.141142 91.4859 0.000912575C82.9787 -0.0925738 76.1542 7.01239 75.3128 14.0706C74.9388 17.0622 75.7335 19.5396 76.3879 21.0821C81.2959 31.5058 86.2039 41.9296 91.112 52.3533Z" fill="#222831"/>
<path d="M177.446 110.642C178.381 108.398 189.412 84.98 177.446 64.6467C176.885 63.6651 164.358 43.1916 139.864 41.1349C120.513 39.4989 101.535 49.9694 91.3917 67.8253C82.791 50.4836 64.7949 39.8261 45.7236 40.761C24.8294 41.7893 8.46933 56.5134 2.53294 73.7617C-3.49693 91.2903 2.90689 106.716 4.63638 110.642C16.2287 124.572 27.821 138.968 39.4133 152.898L46.2846 165.799L20.2486 191.975V212.402H163.657V192.77L136.826 165.799L143.417 153.506C155.664 138.267 165.153 125.88 177.446 110.642ZM113.875 109.193C116.82 102.883 120.513 93.908 127.15 91.3838C127.291 91.3371 129.114 91.1969 130.095 92.5524C132.245 95.4972 130.189 101.621 127.618 106.061C126.496 108.024 125.701 109.427 124.112 112.979C122.71 116.111 122.242 116.204 121.307 120.832C120.373 125.46 119.531 126.114 118.503 128.498C117.334 131.116 116.166 132.752 114.249 133.126C113.081 133.359 111.819 133.032 111.398 132.237C108.313 126.208 110.229 117.046 113.875 109.193ZM53.1558 92.5524C54.1374 91.1969 55.9604 91.3371 56.1006 91.3838C62.7382 93.908 66.4776 102.883 69.3757 109.193C73.0217 117.046 74.9381 126.161 71.8064 132.237C71.3857 133.032 70.1236 133.359 68.955 133.126C67.0385 132.705 65.87 131.116 64.7014 128.498C63.673 126.114 62.8317 125.46 61.8968 120.832C60.9619 116.204 60.4945 116.111 59.0922 112.979C57.5029 109.427 56.7083 108.024 55.5865 106.061C53.0623 101.621 51.0056 95.4972 53.1558 92.5524Z" fill="#222831"/>
</svg>
