<svg width="78" height="94" viewBox="0 0 78 94" fill="none" xmlns="http://www.w3.org/2000/svg">
<path d="M77.1814 40.3351C76.4883 26.081 69.2207 15.0543 64.5577 9.22021C63.7806 11.951 63.0034 14.6819 62.2262 17.4127C65.5029 22.1916 70.292 30.3221 70.8591 41.0385C71.2372 48.1759 70.0399 52.8721 69.5988 55.0857C69.0947 57.6924 67.9394 62.5334 65.2929 68.2019C63.9906 70.9948 62.9614 73.2498 61.8691 74.9463C63.1504 74.8842 64.4527 74.9256 65.734 74.9463C65.797 74.9463 69.5358 74.9463 69.5988 74.9463C71.2582 71.3258 73.2536 66.278 74.7659 60.0508C75.6271 56.7407 77.5805 48.7551 77.1814 40.3351Z" fill="white"/>
<path d="M48.2584 5.97224C50.758 5.14472 53.0685 2.76559 52.5854 1.37949C51.9972 -0.316935 47.3342 -0.00661481 46.263 0.0761375C43.7845 0.241642 39.0794 1.11054 38.9534 2.70352C38.8274 4.42063 44.0575 7.33766 48.2584 5.97224Z" fill="white"/>
<path d="M59.2019 73.3739C60.9453 67.7054 63.1717 62.2644 64.8731 56.5752C65.7763 53.8444 66.1124 49.5206 66.2174 44.5968C66.2594 42.6108 66.3854 28.7084 57.0174 17.9299C58.9498 11.62 60.5672 5.39289 58.9078 4.64812C57.4375 4.00679 53.0055 7.85477 49.8969 11.5993C46.3681 9.11675 41.327 6.46867 37.3992 8.08234C34.7526 9.15812 30.7828 12.9234 29.0814 14.5163C28.5353 15.0335 27.254 16.2748 25.3216 17.7437C23.9353 18.7988 22.759 19.5642 22.0029 20.0401C16.3526 23.7432 10.7024 27.4671 5.05219 31.1702C4.25402 31.6254 3.07777 32.4529 2.06955 33.7976C1.88051 34.0459 -1.06013 38.1214 0.410191 42.6314C1.71247 46.6242 5.93438 49.4378 10.8284 49.3344L15.0293 45.4036H34.5426C33.4923 52.0238 31.4339 55.5201 28.7873 58.4992C26.8339 60.7128 23.4102 62.7816 21.0366 66.8572C19.6713 69.1949 18.9782 71.4913 18.6211 73.3739L6.87959 84.9593V94H71.3215V85.311L59.2649 73.3739H59.2019Z" fill="white"/>
</svg>
