<svg width="89" height="86" viewBox="0 0 89 86" fill="none" xmlns="http://www.w3.org/2000/svg">
<path d="M25.1244 66.7451L14.3672 77.5603V86H73.6382V77.8886L62.5333 66.7451H25.1244Z" fill="#222831"/>
<path d="M25.3375 61.4536C20.4513 50.2908 12.9193 39.128 8.0332 27.9652L13.267 25.0296L27.9254 36.9649L29.3932 12.6887H35.0518L44.4765 33.8362L53.4762 12.6887H59.9653L62.0511 37.0808L75.4542 25.0489L80.9004 27.9845L62.6498 61.4729H25.3375V61.4536Z" fill="#222831"/>
<path d="M7.12643 28.9112C11.0622 28.9112 14.2529 25.7206 14.2529 21.7848C14.2529 17.8489 11.0622 14.6583 7.12643 14.6583C3.19061 14.6583 0 17.8489 0 21.7848C0 25.7206 3.19061 28.9112 7.12643 28.9112Z" fill="#222831"/>
<path d="M57.5131 14.2529C61.449 14.2529 64.6396 11.0622 64.6396 7.12643C64.6396 3.19061 61.449 0 57.5131 0C53.5773 0 50.3867 3.19061 50.3867 7.12643C50.3867 11.0622 53.5773 14.2529 57.5131 14.2529Z" fill="#222831"/>
<path d="M31.0366 14.2529C34.9724 14.2529 38.163 11.0622 38.163 7.12643C38.163 3.19061 34.9724 0 31.0366 0C27.1008 0 23.9102 3.19061 23.9102 7.12643C23.9102 11.0622 27.1008 14.2529 31.0366 14.2529Z" fill="#222831"/>
<path d="M80.8803 28.9112C84.8161 28.9112 88.0068 25.7206 88.0068 21.7848C88.0068 17.8489 84.8161 14.6583 80.8803 14.6583C76.9445 14.6583 73.7539 17.8489 73.7539 21.7848C73.7539 25.7206 76.9445 28.9112 80.8803 28.9112Z" fill="#222831"/>
<path d="M25.3396 61.4535L25.3203 66.7452H62.5361L62.652 61.4535H25.3396Z" fill="#222831"/>
</svg>
