<svg width="141" height="215" viewBox="0 0 141 215" fill="none" xmlns="http://www.w3.org/2000/svg">
<path d="M114.539 169.071L106.536 156.465C106.536 156.465 106.536 156.465 96.5443 128.564C86.5522 100.664 93.6762 92.2753 93.6762 92.2753H93.9537C99.5512 92.2753 104.038 87.7333 104.038 82.1718C104.038 76.7956 99.8287 72.3928 94.5551 72.0683C104.038 64.6993 110.191 53.1591 110.191 40.2285C110.191 17.9823 92.1959 0 70.0374 0C47.8789 0 29.8838 18.0287 29.8838 40.2285C29.8838 53.2518 36.0364 64.792 45.6122 72.161C40.6624 72.8099 36.8228 77.0737 36.8228 82.1718C36.8228 87.7797 41.3563 92.2753 46.9075 92.2753H46.3986C46.3986 92.2753 53.4764 100.71 43.5305 128.564C33.5384 156.465 33.5384 156.465 33.5384 156.465L25.5817 169.071L0 194.839V215H141V195.674L114.539 169.071Z" fill="#E8E8E8"/>
</svg>
