<svg width="88" height="86" viewBox="0 0 88 86" fill="none" xmlns="http://www.w3.org/2000/svg">
<path d="M80.933 14.6293C76.9945 14.6293 73.8089 17.8137 73.8089 21.7509C73.8089 23.1405 74.2143 24.4336 74.8901 25.5337L62.0898 37.0364L60.1013 13.7801C62.7849 12.7572 64.6962 10.171 64.6962 7.12163C64.6962 3.18447 61.5106 0 57.5721 0C53.6336 0 50.448 3.18447 50.448 7.12163C50.448 9.49551 51.6257 11.5992 53.4019 12.8923L44.5016 33.794L35.1958 12.9309C37.0106 11.6378 38.1883 9.53411 38.1883 7.14093C38.1883 3.20377 35.0028 0.019301 31.0642 0.019301C27.1257 0.019301 23.9401 3.20377 23.9401 7.14093C23.9401 10.4798 26.2376 13.2783 29.3266 14.0503L27.9366 36.9592L13.418 25.1477C13.9586 24.1441 14.2482 23.0054 14.2482 21.8088C14.2482 17.8716 11.0626 14.6872 7.12411 14.6872C3.18558 14.6872 0 17.8716 0 21.8088C0 25.746 3.18558 28.9304 7.12411 28.9304C7.56816 28.9304 7.99291 28.8918 8.41765 28.8146C13.3022 39.6997 20.5808 50.5848 25.3495 61.4699L25.3302 66.7581H25.1371L14.3834 77.566V86H73.6158V77.8941L62.5339 66.7581L62.6304 61.4699L80.3731 28.9111C80.5469 28.9304 80.7013 28.9304 80.8751 28.9304C84.8136 28.9304 87.9992 25.746 87.9992 21.8088C88.0571 17.8137 84.8716 14.6293 80.933 14.6293Z" fill="#222831"/>
</svg>
