<svg width="77" height="94" viewBox="0 0 77 94" fill="none" xmlns="http://www.w3.org/2000/svg">
<path d="M10.6645 49.3379C5.86521 49.4414 1.68654 46.6073 0.40398 42.6355C-1.04407 38.1052 1.85203 34.0299 2.03821 33.8024C3.05185 32.4578 4.21029 31.651 4.97569 31.1752C10.5404 27.4723 16.105 23.7488 21.6697 20.0459C22.4144 19.5701 23.5935 18.8047 24.9381 17.7497C26.8413 16.281 28.1032 15.0398 28.641 14.5226C30.2959 12.9297 34.2264 9.1648 36.8329 8.08911C42.8319 5.60673 51.4168 13.3021 53.0924 14.8122C65.4009 25.8174 65.2561 42.408 65.2147 44.6007C65.0906 49.5034 64.7803 53.8476 63.8908 56.5782C62.1531 62.4945 59.8362 68.1212 58.1192 74.0376C44.7971 74.3272 31.3923 74.5961 18.0702 74.8857C18.3185 72.8378 18.9597 69.9003 20.6974 66.88C23.035 62.8048 26.4069 60.7362 28.3307 58.5227C30.9372 55.5439 32.9645 52.0479 33.9988 45.4282H14.7811L10.6645 49.3379Z" fill="#E8E8E8"/>
<path d="M61.3064 17.4186C62.0718 14.688 62.8372 11.9574 63.6026 9.22681C68.2157 15.0604 75.3732 26.0656 76.0352 40.3393C76.4282 48.738 74.5044 56.7436 73.6976 60.0742C72.2082 66.3008 70.2223 71.3276 68.6087 74.9684C68.5467 74.9684 64.8645 74.9684 64.8024 74.9684C63.5198 74.9477 62.2373 74.9063 60.9961 74.9684C62.0718 73.2721 63.0854 71.0173 64.368 68.2246C66.9745 62.5565 68.1122 57.6952 68.6087 55.1094C69.0431 52.8959 70.2223 48.2001 69.8499 41.0633C69.25 30.3477 64.5335 22.1972 61.3064 17.4186Z" fill="#E8E8E8"/>
<path d="M48.2109 12.8469C51.2312 8.75096 56.4235 3.93102 58.037 4.65504C59.816 5.44113 57.8095 12.6193 55.7408 19.3838C53.2377 17.2117 50.714 15.019 48.2109 12.8469Z" fill="#E8E8E8"/>
<path d="M38.3831 2.68991C38.5072 1.09705 43.1409 0.22822 45.5819 0.0627282C46.637 0.000668821 51.2294 -0.309631 51.8086 1.36597C52.2844 2.73128 50.0089 5.13091 47.5472 5.95837C43.4099 7.34436 38.2589 4.42757 38.3831 2.68991Z" fill="#E8E8E8"/>
<path d="M18.3399 73.3756L6.79688 84.96V94H70.2836V85.3117L58.4096 73.3756H18.3399Z" fill="#E8E8E8"/>
</svg>
