<svg width="177" height="215" viewBox="0 0 177 215" fill="none" xmlns="http://www.w3.org/2000/svg">
<path d="M176.535 92.2558C174.949 59.6534 158.327 34.4327 147.661 21.0889C145.884 27.3349 144.106 33.5809 142.328 39.827C149.823 50.7576 160.777 69.3537 162.074 93.8647C162.939 110.19 160.2 120.931 159.191 125.994C158.038 131.956 155.396 143.029 149.343 155.994C146.364 162.382 144.01 167.54 141.512 171.42C144.442 171.278 147.421 171.372 150.352 171.42C150.496 171.42 159.047 171.42 159.191 171.42C162.987 163.139 167.551 151.593 171.01 137.35C172.979 129.779 177.447 111.514 176.535 92.2558Z" fill="#E8E8E8"/>
<path d="M110.38 13.6599C116.097 11.7672 121.381 6.32555 120.276 3.15521C118.931 -0.724905 108.266 -0.0151296 105.816 0.174144C100.147 0.552692 89.3852 2.54007 89.0969 6.18359C88.8087 10.111 100.771 16.7829 110.38 13.6599Z" fill="#E8E8E8"/>
<path d="M135.409 167.823C139.396 154.858 144.488 142.413 148.38 129.401C150.446 123.155 151.214 113.265 151.455 102.003C151.551 97.4608 151.839 65.6628 130.412 41.0099C134.832 26.5778 138.531 12.3349 134.736 10.6314C131.373 9.16456 121.236 17.9658 114.126 26.5304C106.055 20.8522 94.5245 14.7955 85.5406 18.4863C79.4873 20.9469 70.4073 29.5588 66.5159 33.2023C65.2668 34.3853 62.3362 37.2244 57.9163 40.584C54.7455 42.9973 52.0552 44.7481 50.3256 45.8364C37.4023 54.3064 24.4789 62.8237 11.5555 71.2937C9.72993 72.3347 7.03957 74.2275 4.73354 77.3032C4.30116 77.871 -2.42476 87.1927 0.938203 97.5081C3.91682 106.641 13.5733 113.076 24.7672 112.839L34.3756 103.849H79.0069C76.6048 118.991 71.8966 126.988 65.8433 133.801C61.3754 138.864 53.5445 143.596 48.1157 152.918C44.993 158.265 43.4076 163.517 42.5908 167.823L15.7352 194.322V215H163.129V195.126L135.553 167.823H135.409Z" fill="#E8E8E8"/>
</svg>
