<svg width="78" height="94" viewBox="0 0 78 94" fill="none" xmlns="http://www.w3.org/2000/svg">
<path d="M77.1834 40.3351C76.4902 26.081 69.2227 15.0542 64.5597 9.22021C63.7825 11.951 63.0053 14.6819 62.2282 17.4127C65.5049 22.1916 70.2939 30.322 70.861 41.0385C71.2391 48.1758 70.0418 52.872 69.6008 55.0857C69.0966 57.6924 67.9414 62.5334 65.2948 68.2019C63.9925 70.9948 62.9633 73.2498 61.8711 74.9462C63.1524 74.8841 64.4547 74.9255 65.7359 74.9462C65.7989 74.9462 69.5377 74.9462 69.6008 74.9462C71.2601 71.3258 73.2555 66.2779 74.7679 60.0508C75.6291 56.7407 77.5825 48.7551 77.1834 40.3351Z" fill="white"/>
<path d="M48.2584 5.97224C50.758 5.14471 53.0685 2.76559 52.5853 1.37949C51.9972 -0.316935 47.3342 -0.00661481 46.263 0.0761375C43.7844 0.241642 39.0794 1.11054 38.9534 2.70352C38.8274 4.42063 44.0575 7.33765 48.2584 5.97224Z" fill="white"/>
<path d="M59.2018 73.3739C60.9452 67.7053 63.1717 62.2644 64.873 56.5752C65.7762 53.8443 66.1123 49.5205 66.2173 44.5968C66.2593 42.6107 66.3854 28.7083 57.0174 17.9299C58.9498 11.62 60.5671 5.39289 58.9078 4.64812C57.4375 4.00679 53.0055 7.85477 49.8968 11.5993C46.3681 9.11674 41.327 6.46867 37.3991 8.08234C34.7526 9.15812 30.7827 12.9233 29.0814 14.5163C28.5352 15.0335 27.254 16.2748 25.3215 17.7437C23.9352 18.7988 22.759 19.5642 22.0028 20.04C16.3526 23.7432 10.7024 27.4671 5.05218 31.1702C4.25401 31.6254 3.07776 32.4529 2.06955 33.7976C1.88051 34.0459 -1.06013 38.1214 0.410191 42.6314C1.71247 46.6242 5.93437 49.4378 10.8284 49.3343L15.0293 45.4036H34.5425C33.4923 52.0238 31.4339 55.5201 28.7873 58.4992C26.8339 60.7128 23.4101 62.7816 21.0366 66.8571C19.6713 69.1949 18.9782 71.4913 18.6211 73.3739L6.87958 84.9592V93.9999H71.3214V85.3109L59.2648 73.3739H59.2018Z" fill="white"/>
</svg>
