<svg width="63" height="96" viewBox="0 0 63 96" fill="none" xmlns="http://www.w3.org/2000/svg">
<path d="M51.1772 75.4921L47.6014 69.8633C47.6014 69.8633 47.6014 69.8633 43.1368 57.4055C38.6722 44.9476 41.8553 41.202 41.8553 41.202H41.9793C44.4803 41.202 46.4852 39.174 46.4852 36.6907C46.4852 34.2901 44.6043 32.3242 42.248 32.1794C46.4852 28.889 49.2343 23.7361 49.2343 17.9625C49.2343 8.02931 41.1939 0 31.2933 0C21.3927 0 13.3524 8.05001 13.3524 17.9625C13.3524 23.7775 16.1014 28.9304 20.3799 32.2207C18.1683 32.5105 16.4528 34.4143 16.4528 36.6907C16.4528 39.1947 18.4783 41.202 20.9587 41.202H20.7313C20.7313 41.202 23.8937 44.9683 19.4498 57.4055C14.9852 69.8633 14.9852 69.8633 14.9852 69.8633L11.4301 75.4921L0 86.9981V96H63V87.3706L51.1772 75.4921Z" fill="#222831"/>
</svg>
