<svg width="98" height="96" viewBox="0 0 98 96" fill="none" xmlns="http://www.w3.org/2000/svg">
<path d="M90.13 16.3303C85.7439 16.3303 82.1963 19.8851 82.1963 24.2801C82.1963 25.8312 82.6478 27.2747 83.4003 28.5027L69.1455 41.3429L66.931 15.3824C69.9195 14.2406 72.0481 11.3537 72.0481 7.94973C72.0481 3.55476 68.5005 0 64.1144 0C59.7283 0 56.1807 3.55476 56.1807 7.94973C56.1807 10.5996 57.4922 12.9479 59.4703 14.3914L49.5586 37.7235L39.1954 14.4345C41.2164 12.991 42.5279 10.6427 42.5279 7.97127C42.5279 3.5763 38.9803 0.0215453 34.5942 0.0215453C30.2082 0.0215453 26.6606 3.5763 26.6606 7.97127C26.6606 11.6984 29.2191 14.8223 32.6592 15.684L31.1112 41.2567L14.9428 28.0718C15.5448 26.9515 15.8673 25.6804 15.8673 24.3447C15.8673 19.9497 12.3198 16.395 7.93367 16.395C3.54758 16.395 0 19.9497 0 24.3447C0 28.7397 3.54758 32.2944 7.93367 32.2944C8.42818 32.2944 8.90119 32.2514 9.3742 32.1652C14.8138 44.316 22.9195 56.4668 28.2301 68.6176L28.2086 74.5206H27.9936L16.0178 86.5853V96H81.9813V86.9515L69.64 74.5206L69.7475 68.6176L89.5064 32.2729C89.7 32.2944 89.8719 32.2944 90.0655 32.2944C94.4515 32.2944 97.9991 28.7397 97.9991 24.3447C98.0636 19.8851 94.516 16.3303 90.13 16.3303Z" fill="#E8E8E8"/>
</svg>
