<svg width="41" height="41" viewBox="0 0 41 41" fill="none" xmlns="http://www.w3.org/2000/svg">
<path d="M37.7074 6.97442C35.8724 6.97442 34.3882 8.4926 34.3882 10.3696C34.3882 11.0321 34.5771 11.6486 34.892 12.173L28.9282 17.6569L28.0017 6.56957C29.252 6.08191 30.1426 4.84897 30.1426 3.3952C30.1426 1.51818 28.6584 0 26.8234 0C24.9884 0 23.5042 1.51818 23.5042 3.3952C23.5042 4.52693 24.0529 5.52985 24.8804 6.14632L20.7337 16.1111L16.3981 6.16472C17.2436 5.54825 17.7923 4.54533 17.7923 3.4044C17.7923 1.52738 16.3081 0.00920164 14.4731 0.00920164C12.6381 0.00920164 11.1539 1.52738 11.1539 3.4044C11.1539 4.99618 12.2243 6.33034 13.6635 6.69839L13.0159 17.6201L6.25159 11.989C6.50345 11.5105 6.63838 10.9677 6.63838 10.3972C6.63838 8.5202 5.15419 7.00202 3.31919 7.00202C1.48419 7.00202 0 8.5202 0 10.3972C0 12.2742 1.48419 13.7924 3.31919 13.7924C3.52608 13.7924 3.72397 13.774 3.92186 13.7372C6.19762 18.9266 9.58877 24.116 11.8106 29.3054L11.8016 31.8265H11.7116L6.70134 36.9791V41H34.2983V37.1355L29.1351 31.8265L29.1801 29.3054L37.4466 13.7832C37.5275 13.7924 37.5995 13.7924 37.6804 13.7924C39.5154 13.7924 40.9996 12.2742 40.9996 10.3972C41.0266 8.49259 39.5424 6.97442 37.7074 6.97442Z" fill="white"/>
</svg>
